<svg width="24" height="24" viewBox="0 0 24 24" fill="none" xmlns="http://www.w3.org/2000/svg">
<path d="M9.36423 5.36833C9.248 5.48432 9.15578 5.62211 9.09286 5.77379C9.02995 5.92547 8.99756 6.08807 8.99756 6.25228C8.99756 6.41649 9.02995 6.57909 9.09286 6.73077C9.15578 6.88245 9.248 7.02023 9.36423 7.13623L14.2291 12.0011L9.36423 16.866C9.24815 16.982 9.15607 17.1198 9.09325 17.2715C9.03043 17.4232 8.99809 17.5857 8.99809 17.7499C8.99809 17.9141 9.03043 18.0766 9.09325 18.2283C9.15607 18.38 9.24815 18.5178 9.36423 18.6339C9.48032 18.7499 9.61813 18.842 9.76979 18.9048C9.92146 18.9677 10.084 19 10.2482 19C10.4123 19 10.5749 18.9677 10.7266 18.9048C10.8782 18.842 11.0161 18.7499 11.1321 18.6339L16.8872 12.8788C17.0035 12.7628 17.0957 12.625 17.1586 12.4733C17.2215 12.3216 17.2539 12.159 17.2539 11.9948C17.2539 11.8306 17.2215 11.668 17.1586 11.5163C17.0957 11.3647 17.0035 11.2269 16.8872 11.1109L11.1321 5.35579C10.6557 4.87933 9.85323 4.87933 9.36423 5.36833Z" fill="#EEEEEE"/>
</svg>
