<svg width="18" height="18" viewBox="0 0 18 18" fill="none" xmlns="http://www.w3.org/2000/svg">
<path d="M5.77432 3.31571C5.67469 3.41514 5.59564 3.53323 5.54171 3.66325C5.48778 3.79326 5.46002 3.93263 5.46002 4.07338C5.46002 4.21414 5.48778 4.35351 5.54171 4.48352C5.59564 4.61353 5.67469 4.73163 5.77432 4.83105L9.9442 9.00094L5.77432 13.1708C5.67482 13.2703 5.59589 13.3884 5.54204 13.5184C5.48819 13.6484 5.46048 13.7878 5.46048 13.9285C5.46048 14.0692 5.48819 14.2085 5.54204 14.3385C5.59589 14.4685 5.67482 14.5867 5.77432 14.6862C5.87381 14.7857 5.99194 14.8646 6.12194 14.9184C6.25194 14.9723 6.39127 15 6.53199 15C6.6727 15 6.81203 14.9723 6.94204 14.9184C7.07204 14.8646 7.19016 14.7857 7.28966 14.6862L12.2226 9.75323C12.3222 9.65381 12.4013 9.53571 12.4552 9.4057C12.5091 9.27569 12.5369 9.13632 12.5369 8.99556C12.5369 8.85481 12.5091 8.71544 12.4552 8.58543C12.4013 8.45542 12.3222 8.33732 12.2226 8.23789L7.28966 3.30496C6.88127 2.89657 6.19345 2.89657 5.77432 3.31571Z" fill="#A4A4A4"/>
</svg>
