<svg width="18" height="18" viewBox="0 0 18 18" fill="none" xmlns="http://www.w3.org/2000/svg">
<path d="M14.7333 4.06667V14.7333C14.7333 15.0162 14.621 15.2875 14.4209 15.4876C14.2209 15.6876 13.9496 15.8 13.6667 15.8H11C10.7171 15.8 10.4458 15.6876 10.2458 15.4876C10.0457 15.2875 9.93333 15.0162 9.93333 14.7333V4.06667C9.93333 3.78377 10.0457 3.51246 10.2458 3.31242C10.4458 3.11238 10.7171 3 11 3H13.6667C13.9496 3 14.2209 3.11238 14.4209 3.31242C14.621 3.51246 14.7333 3.78377 14.7333 4.06667ZM6.73333 3H4.06667C3.78377 3 3.51246 3.11238 3.31242 3.31242C3.11238 3.51246 3 3.78377 3 4.06667V14.7333C3 15.0162 3.11238 15.2875 3.31242 15.4876C3.51246 15.6876 3.78377 15.8 4.06667 15.8H6.73333C7.01623 15.8 7.28754 15.6876 7.48758 15.4876C7.68762 15.2875 7.8 15.0162 7.8 14.7333V4.06667C7.8 3.78377 7.68762 3.51246 7.48758 3.31242C7.28754 3.11238 7.01623 3 6.73333 3Z" fill="#EEEEEE"/>
</svg>
