<svg width="13" height="14" viewBox="0 0 13 14" fill="none" xmlns="http://www.w3.org/2000/svg">
<path d="M12.1333 1.66667V12.3333C12.1333 12.6162 12.021 12.8875 11.8209 13.0876C11.6209 13.2876 11.3496 13.4 11.0667 13.4H8.4C8.1171 13.4 7.84579 13.2876 7.64575 13.0876C7.44572 12.8875 7.33334 12.6162 7.33334 12.3333V1.66667C7.33334 1.38378 7.44572 1.11246 7.64575 0.912425C7.84579 0.712387 8.1171 0.600006 8.4 0.600006H11.0667C11.3496 0.600006 11.6209 0.712387 11.8209 0.912425C12.021 1.11246 12.1333 1.38378 12.1333 1.66667ZM4.13334 0.600006H1.46667C1.18377 0.600006 0.91246 0.712387 0.712421 0.912425C0.512382 1.11246 0.400002 1.38378 0.400002 1.66667V12.3333C0.400002 12.6162 0.512382 12.8875 0.712421 13.0876C0.91246 13.2876 1.18377 13.4 1.46667 13.4H4.13334C4.41623 13.4 4.68754 13.2876 4.88758 13.0876C5.08762 12.8875 5.2 12.6162 5.2 12.3333V1.66667C5.2 1.38378 5.08762 1.11246 4.88758 0.912425C4.68754 0.712387 4.41623 0.600006 4.13334 0.600006Z" fill="#A4A4A4"/>
</svg>
