<svg width="18" height="18" viewBox="0 0 18 18" fill="none" xmlns="http://www.w3.org/2000/svg">
<path d="M14 9.15385C14.0004 9.31456 13.9608 9.47265 13.8851 9.61272C13.8095 9.7528 13.7003 9.8701 13.5682 9.95322L5.38182 15.1684C5.2438 15.2564 5.08572 15.3044 4.92391 15.3075C4.7621 15.3107 4.60242 15.2687 4.46136 15.1861C4.32165 15.1048 4.20527 14.9861 4.12418 14.8424C4.0431 14.6987 4.00023 14.5351 4 14.3684V3.9393C4.00023 3.77262 4.0431 3.609 4.12418 3.46529C4.20527 3.32157 4.32165 3.20294 4.46136 3.12159C4.60242 3.03896 4.7621 2.99704 4.92391 3.00016C5.08572 3.00328 5.2438 3.05133 5.38182 3.13934L13.5682 8.35448C13.7003 8.43759 13.8095 8.55489 13.8851 8.69497C13.9608 8.83504 14.0004 8.99313 14 9.15385Z" fill="#A4A4A4"/>
</svg>
