<svg width="11" height="14" viewBox="0 0 11 14" fill="none" xmlns="http://www.w3.org/2000/svg">
<path d="M10.4 7.00001C10.4004 7.16715 10.3592 7.33156 10.2805 7.47724C10.2018 7.62292 10.0883 7.74491 9.95091 7.83135L1.43709 13.2551C1.29355 13.3466 1.12915 13.3966 0.960864 13.3998C0.792579 13.4031 0.626514 13.3595 0.479818 13.2736C0.334519 13.189 0.213481 13.0656 0.129151 12.9161C0.0448213 12.7666 0.00024278 12.5965 0 12.4231V1.57688C0.00024278 1.40353 0.0448213 1.23337 0.129151 1.0839C0.213481 0.934438 0.334519 0.811062 0.479818 0.726461C0.626514 0.640526 0.792579 0.59693 0.960864 0.600175C1.12915 0.60342 1.29355 0.653389 1.43709 0.744922L9.95091 6.16866C10.0883 6.2551 10.2018 6.37709 10.2805 6.52277C10.3592 6.66845 10.4004 6.83286 10.4 7.00001Z" fill="#EEEEEE"/>
</svg>
