<svg width="12" height="12" viewBox="0 0 12 12" fill="none" xmlns="http://www.w3.org/2000/svg">
<path d="M9 7L10 6M10 6L11 5M10 6L9 5M10 6L11 7" stroke="#212121" stroke-linecap="round" stroke-linejoin="round"/>
<path d="M1 6.92851V5.07151C1 4.80629 1.10536 4.55194 1.29289 4.3644C1.48043 4.17686 1.73478 4.07151 2 4.07151H3.45C3.54776 4.07148 3.64337 4.0428 3.725 3.98901L6.725 2.01101C6.80038 1.96137 6.88778 1.93306 6.97795 1.92908C7.06812 1.9251 7.15768 1.94559 7.23713 1.9884C7.31659 2.0312 7.38298 2.09472 7.42926 2.1722C7.47554 2.24969 7.49999 2.33825 7.5 2.42851V9.57151C7.49999 9.66176 7.47554 9.75033 7.42926 9.82781C7.38298 9.9053 7.31659 9.96881 7.23713 10.0116C7.15768 10.0544 7.06812 10.0749 6.97795 10.0709C6.88778 10.067 6.80038 10.0386 6.725 9.98901L3.725 8.01101C3.64337 7.95721 3.54776 7.92853 3.45 7.92851H2C1.73478 7.92851 1.48043 7.82315 1.29289 7.63561C1.10536 7.44808 1 7.19372 1 6.92851Z" stroke="#212121"/>
</svg>
