<svg width="18" height="18" viewBox="0 0 18 18" fill="none" xmlns="http://www.w3.org/2000/svg">
<path d="M12.84 10.2814L14.12 9.00137M14.12 9.00137L15.4 7.72137M14.12 9.00137L12.84 7.72137M14.12 9.00137L15.4 10.2814" stroke="#EEEEEE" stroke-linecap="round" stroke-linejoin="round"/>
<path d="M2.59998 10.1899V7.81291C2.59998 7.47344 2.73483 7.14786 2.97488 6.90782C3.21493 6.66777 3.5405 6.53291 3.87998 6.53291H5.73598C5.86111 6.53288 5.98349 6.49617 6.08798 6.42731L9.92798 3.89547C10.0245 3.83193 10.1363 3.7957 10.2518 3.7906C10.3672 3.78551 10.4818 3.81175 10.5835 3.86653C10.6852 3.92132 10.7702 4.00262 10.8294 4.1018C10.8887 4.20098 10.92 4.31435 10.92 4.42987V13.5729C10.92 13.6884 10.8887 13.8018 10.8294 13.901C10.7702 14.0002 10.6852 14.0815 10.5835 14.1362C10.4818 14.191 10.3672 14.2173 10.2518 14.2122C10.1363 14.2071 10.0245 14.1709 9.92798 14.1073L6.08798 11.5755C5.98349 11.5066 5.86111 11.4699 5.73598 11.4699H3.87998C3.5405 11.4699 3.21493 11.335 2.97488 11.095C2.73483 10.8549 2.59998 10.5294 2.59998 10.1899Z" stroke="#EEEEEE"/>
</svg>
