<svg width="18" height="18" viewBox="0 0 18 18" fill="none" xmlns="http://www.w3.org/2000/svg">
<path d="M2.59998 10.0781V7.91722C2.59998 7.60861 2.72257 7.31263 2.9408 7.09441C3.15902 6.87618 3.455 6.75359 3.76361 6.75359H5.45088C5.56464 6.75356 5.6759 6.72018 5.77088 6.65759L9.26179 4.35591C9.3495 4.29815 9.45121 4.26521 9.55613 4.26058C9.66106 4.25594 9.76527 4.2798 9.85773 4.32961C9.95019 4.37942 10.0274 4.45332 10.0813 4.54349C10.1352 4.63365 10.1636 4.73671 10.1636 4.84173V13.1536C10.1636 13.2586 10.1352 13.3617 10.0813 13.4518C10.0274 13.542 9.95019 13.6159 9.85773 13.6657C9.76527 13.7155 9.66106 13.7394 9.55613 13.7347C9.45121 13.7301 9.3495 13.6972 9.26179 13.6394L5.77088 11.3377C5.6759 11.2751 5.56464 11.2418 5.45088 11.2417H3.76361C3.455 11.2417 3.15902 11.1191 2.9408 10.9009C2.72257 10.6827 2.59998 10.3867 2.59998 10.0781Z" stroke="#EEEEEE"/>
<path d="M12.2 6.37949C12.2 6.37949 13.0727 7.25222 13.0727 8.70676C13.0727 10.1613 12.2 11.034 12.2 11.034M13.9454 4.63403C13.9454 4.63403 15.4 6.08858 15.4 8.70676C15.4 11.3249 13.9454 12.7795 13.9454 12.7795" stroke="#EEEEEE" stroke-linecap="round" stroke-linejoin="round"/>
</svg>
