<svg width="12" height="12" viewBox="0 0 12 12" fill="none" xmlns="http://www.w3.org/2000/svg">
<path d="M0.5 6.92851V5.07151C0.5 4.80629 0.605357 4.55194 0.792893 4.3644C0.98043 4.17686 1.23478 4.07151 1.5 4.07151H2.95C3.04776 4.07148 3.14337 4.0428 3.225 3.98901L6.225 2.01101C6.30038 1.96137 6.38778 1.93306 6.47795 1.92908C6.56812 1.9251 6.65768 1.94559 6.73713 1.9884C6.81659 2.0312 6.88298 2.09472 6.92926 2.1722C6.97554 2.24969 6.99999 2.33825 7 2.42851V9.57151C6.99999 9.66176 6.97554 9.75033 6.92926 9.82781C6.88298 9.9053 6.81659 9.96881 6.73713 10.0116C6.65768 10.0544 6.56812 10.0749 6.47795 10.0709C6.38778 10.067 6.30038 10.0386 6.225 9.98901L3.225 8.01101C3.14337 7.95721 3.04776 7.92853 2.95 7.92851H1.5C1.23478 7.92851 0.98043 7.82315 0.792893 7.63561C0.605357 7.44808 0.5 7.19372 0.5 6.92851Z" stroke="#212121"/>
<path d="M8.75 3.75C8.75 3.75 9.5 4.5 9.5 5.75C9.5 7 8.75 7.75 8.75 7.75M10.25 2.25C10.25 2.25 11.5 3.5 11.5 5.75C11.5 8 10.25 9.25 10.25 9.25" stroke="#212121" stroke-linecap="round" stroke-linejoin="round"/>
</svg>
