<svg width="10" height="12" viewBox="0 0 10 12" fill="none" xmlns="http://www.w3.org/2000/svg">
<path d="M5 10.5122C3.9686 10.5122 2.97945 10.1042 2.25014 9.37785C1.52083 8.65154 1.11111 7.66645 1.11111 6.63929C1.11111 5.61212 1.52083 4.62703 2.25014 3.90072C2.97945 3.17441 3.9686 2.76637 5 2.76637C6.0314 2.76637 7.02055 3.17441 7.74986 3.90072C8.47917 4.62703 8.88889 5.61212 8.88889 6.63929C8.88889 7.66645 8.47917 8.65154 7.74986 9.37785C7.02055 10.1042 6.0314 10.5122 5 10.5122ZM8.90556 3.53542L9.69445 2.74977C9.44445 2.4676 9.19445 2.2131 8.91111 1.96965L8.12222 2.76637C7.26111 2.06924 6.17778 1.65982 5 1.65982C3.67392 1.65982 2.40215 2.18444 1.46447 3.11827C0.526784 4.0521 0 5.31865 0 6.63929C0 7.95992 0.526784 9.22647 1.46447 10.1603C2.40215 11.0941 3.67392 11.6188 5 11.6188C7.77778 11.6188 10 9.38906 10 6.63929C10 5.46635 9.58889 4.38746 8.90556 3.53542ZM4.44444 7.19256H5.55556V3.87292H4.44444M6.66667 0H3.33333V1.10655H6.66667V0Z" fill="#A4A4A4"/>
</svg>
