<svg width="18" height="18" viewBox="0 0 18 18" fill="none" xmlns="http://www.w3.org/2000/svg">
<path d="M8.50834 14.1809C7.37208 14.1809 6.28236 13.7314 5.47891 12.9313C4.67545 12.1311 4.22407 11.0459 4.22407 9.91426C4.22407 8.78267 4.67545 7.69743 5.47891 6.89727C6.28236 6.09712 7.37208 5.64759 8.50834 5.64759C9.64459 5.64759 10.7343 6.09712 11.5378 6.89727C12.3412 7.69743 12.7926 8.78267 12.7926 9.91426C12.7926 11.0459 12.3412 12.1311 11.5378 12.9313C10.7343 13.7314 9.64459 14.1809 8.50834 14.1809ZM12.811 6.49483L13.6801 5.62931C13.4046 5.31845 13.1292 5.03807 12.8171 4.76988L11.948 5.64759C10.9993 4.87959 9.80586 4.42855 8.50834 4.42855C7.04744 4.42855 5.64637 5.0065 4.61335 6.03528C3.58034 7.06405 3 8.45936 3 9.91426C3 11.3692 3.58034 12.7645 4.61335 13.7932C5.64637 14.822 7.04744 15.4 8.50834 15.4C11.5685 15.4 14.0167 12.9436 14.0167 9.91426C14.0167 8.62207 13.5638 7.4335 12.811 6.49483ZM7.8963 10.5238H9.12037V6.86664H7.8963M10.3444 2.59998H6.67222V3.81902H10.3444V2.59998Z" fill="#A4A4A4"/>
</svg>
